<?xml version="1.0" standalone="no"?>
<!DOCTYPE svg PUBLIC "-//W3C//DTD SVG 20010904//EN"
 "http://www.w3.org/TR/2001/REC-SVG-20010904/DTD/svg10.dtd">
<svg version="1.0" xmlns="http://www.w3.org/2000/svg"
 width="512.000000pt" height="512.000000pt" viewBox="0 0 512.000000 512.000000"
 preserveAspectRatio="xMidYMid meet">
<metadata>
Created by potrace 1.11, written by Peter Selinger 2001-2013
</metadata>
<g transform="translate(0.000000,512.000000) scale(0.100000,-0.100000)"
fill="#000000" stroke="none">
<path d="M1324 4492 c-134 -52 -247 -194 -230 -287 7 -36 32 -59 77 -70 25 -6
25 -6 25 57 0 96 61 210 132 247 29 15 62 5 62 -19 0 -10 -32 -107 -71 -216
-39 -110 -83 -237 -99 -284 -16 -47 -56 -164 -90 -260 -34 -96 -65 -187 -70
-201 -4 -14 -15 -40 -25 -59 l-17 -33 52 6 c86 10 90 16 149 203 29 93 61 196
70 228 l18 60 55 -95 c127 -214 272 -389 343 -413 44 -15 62 -11 100 22 29 26
32 21 -55 91 -72 59 -176 162 -233 233 -53 66 -162 227 -156 231 2 2 40 27 84
57 223 150 386 291 421 366 22 46 25 114 5 138 -14 16 -15 16 -25 -1 -31 -54
-132 -169 -237 -270 -50 -47 -242 -203 -247 -199 -1 2 23 85 54 186 71 235 73
270 11 288 -41 13 -56 12 -103 -6z"/>
<path d="M2792 4499 c-154 -29 -263 -168 -249 -318 5 -55 31 -123 59 -152 34
-37 38 -45 18 -46 -37 -3 -112 -34 -163 -67 -65 -42 -107 -87 -141 -151 -116
-220 34 -433 293 -418 155 8 317 115 411 269 36 59 79 180 74 207 -1 9 0 17 4
18 4 1 31 2 61 4 43 2 57 7 72 26 10 13 19 27 19 30 0 6 -31 11 -145 26 -111
14 -197 2 -230 -30 -14 -14 -35 -73 -29 -80 3 -2 26 0 52 5 26 5 68 11 95 14
56 6 57 2 26 -88 -66 -196 -244 -340 -410 -332 -58 3 -101 24 -133 67 -90 118
-26 313 139 416 27 17 68 36 90 42 69 17 68 16 34 52 -94 99 -91 312 6 411 34
35 53 44 110 50 100 11 142 -81 80 -175 -13 -20 -40 -52 -60 -71 l-36 -34 25
-27 c47 -51 94 -28 138 68 31 69 32 181 2 222 -43 58 -118 79 -212 62z"/>
<path d="M4117 4504 c-1 -1 -22 -5 -47 -9 -113 -17 -263 -104 -315 -184 -50
-75 -42 -160 17 -180 51 -18 53 -16 54 57 1 77 18 118 71 168 64 61 157 92
264 90 181 -5 288 -116 293 -306 6 -217 -101 -454 -277 -617 -85 -78 -166
-114 -271 -120 -74 -5 -86 -4 -86 10 0 81 163 614 260 851 43 108 42 116 -16
116 -34 0 -70 -33 -99 -89 -38 -76 -213 -627 -250 -786 -21 -91 -16 -108 42
-136 93 -45 262 -23 403 53 126 67 212 146 295 270 83 122 125 255 127 398 3
217 -83 354 -252 400 -38 11 -205 22 -213 14z"/>
<path d="M1490 2993 c-22 -3 -114 -19 -161 -28 -49 -10 -192 -60 -258 -91
-350 -165 -636 -512 -720 -875 -31 -133 -33 -146 -36 -299 -9 -368 125 -701
385 -960 187 -188 413 -309 681 -366 90 -19 357 -26 454 -10 265 41 528 173
720 361 229 225 347 463 382 771 13 118 7 346 -12 464 -19 114 -103 335 -134
355 -17 10 -93 -71 -133 -142 -55 -97 -58 -113 -37 -193 27 -103 32 -142 34
-274 3 -179 -25 -312 -96 -465 -97 -208 -262 -378 -464 -479 -73 -36 -153 -67
-201 -76 -10 -3 -41 -10 -69 -16 -67 -16 -243 -21 -330 -9 -152 21 -344 99
-462 187 -173 129 -296 295 -365 492 -70 200 -73 450 -7 648 33 100 94 220
154 301 36 48 190 195 240 229 107 72 254 136 360 156 17 4 41 9 55 12 46 10
224 13 270 4 25 -4 61 -11 80 -14 53 -8 167 -49 256 -92 80 -38 233 -134 255
-160 6 -8 15 -14 20 -14 4 0 29 28 55 63 27 34 51 64 54 67 3 3 24 27 48 53
51 56 51 55 -47 125 -185 132 -441 239 -646 269 -39 6 -293 11 -325 6z"/>
<path d="M3358 2974 c-2 -1 -25 -5 -52 -9 -171 -20 -363 -93 -536 -203 -279
-177 -494 -490 -571 -831 -21 -91 -32 -190 -33 -301 -2 -107 15 -251 40 -337
30 -106 121 -283 145 -283 25 0 139 148 169 219 11 27 10 41 -8 99 -62 200
-59 426 8 633 91 276 271 485 525 610 142 69 269 100 420 102 66 1 145 -1 175
-5 135 -18 309 -86 430 -168 116 -79 250 -222 309 -330 105 -193 141 -335 136
-540 -2 -121 -7 -153 -42 -269 -97 -329 -346 -580 -678 -684 -109 -34 -160
-41 -300 -41 -133 0 -227 19 -362 76 -69 28 -244 127 -269 152 -13 13 -66 54
-75 58 -4 2 -32 -30 -64 -71 -31 -40 -74 -91 -96 -112 -21 -21 -39 -42 -39
-46 1 -14 162 -129 255 -182 118 -66 283 -128 420 -157 92 -19 133 -22 255
-19 159 3 168 4 295 34 181 43 372 139 520 261 64 52 192 188 236 250 109 154
199 363 224 520 3 19 10 60 15 90 5 30 7 123 5 205 -5 207 -39 348 -127 534
-173 366 -547 655 -938 725 -19 3 -46 9 -60 12 -26 6 -327 14 -332 8z"/>
</g>
</svg>
